<svg xmlns="http://www.w3.org/2000/svg" viewBox="0 0 1400 760"><rect width="1400" height="760" fill="#0b0d12"/><g fill="none" stroke="#c7ff2f" stroke-width="4"><path d="M140 380H1260"/><path d="M280 380V210H520"/><path d="M620 380V550H870"/><path d="M980 380V210H1200"/></g><g font-family="Arial, sans-serif" font-size="34" fill="#f6f3ea"><rect x="70" y="300" width="220" height="160" rx="12" fill="#151922" stroke="#3b4354"/><text x="180" y="370" text-anchor="middle">需求</text><text x="180" y="415" text-anchor="middle" fill="#8f9aae">Brief</text><rect x="410" y="120" width="260" height="180" rx="12" fill="#151922" stroke="#3b4354"/><text x="540" y="198" text-anchor="middle">内容策略</text><text x="540" y="245" text-anchor="middle" fill="#8f9aae">Narrative</text><rect x="530" y="300" width="260" height="160" rx="12" fill="#c7ff2f"/><text x="660" y="372" text-anchor="middle" fill="#0b0d12">生成与编排</text><text x="660" y="415" text-anchor="middle" fill="#0b0d12">Create</text><rect x="780" y="470" width="260" height="180" rx="12" fill="#151922" stroke="#3b4354"/><text x="910" y="548" text-anchor="middle">质检</text><text x="910" y="595" text-anchor="middle" fill="#8f9aae">QA</text><rect x="1110" y="120" width="220" height="180" rx="12" fill="#151922" stroke="#3b4354"/><text x="1220" y="198" text-anchor="middle">投放</text><text x="1220" y="245" text-anchor="middle" fill="#8f9aae">Launch</text></g></svg>